<svg xmlns="http://www.w3.org/2000/svg" width="64" height="64" viewBox="0 0 64 64">
  <defs>
    <linearGradient id="spade" x1="0" y1="0" x2="0" y2="1">
      <stop offset="0" stop-color="#f5d98a"/>
      <stop offset="0.4" stop-color="#d8b65a"/>
      <stop offset="1" stop-color="#9c7a25"/>
    </linearGradient>
  </defs>
  <rect width="64" height="64" rx="13" fill="#170d09"/>
  <rect x="1.5" y="1.5" width="61" height="61" rx="11.5" fill="none" stroke="#d8b65a" stroke-opacity="0.4" stroke-width="1.5"/>
  <path fill="url(#spade)" d="M32 10c-9 14-23 20-23 31 0 7 5 12 11 12 3 0 6-1 8-4-1 6-4 10-7 12h22c-3-2-6-6-7-12 2 3 5 4 8 4 6 0 11-5 11-12 0-11-14-17-23-31z"/>
</svg>
